# File created by Blade
# Date/Time:  Thu Jan 22 19:09:08 2015
#---------------------------------------------------------
:version 1.10
:name HOM
:units
  mass 1.0
  length 1.000000
  angle deg
:documentation
     Acclaim Skeleton File
:root
   axis xyz
   order TX TY TZ RX RY RZ
   position 0.000000 0.000000 0.000000
   orientation 0 0 0
:bonedata
   begin
      id 1
      name RightUpLeg_dum
      direction -1.000000 0.000000 0.000000
      length 4.478084
      axis 0.0 0.0 0.0 xyz
   end
   begin
      id 2
      name LeftUpLeg_dum
      direction 1.000000 0.000000 0.000000
      length 4.478084
      axis 0.0 0.0 0.0 xyz
   end
   begin
      id 3
      name Spine_dum
      direction 0.000000 1.000000 0.000000
      length 6.068208
      axis 0.0 0.0 0.0 xyz
   end
   begin
      id 4
      name RightUpLeg
      direction 0.000000 -1.000000 0.000000
      length 16.405774
      axis 0.0 0.0 0.0 xyz
      dof rx ry rz
   end
   begin
      id 5
      name RightLeg
      direction 0.000000 -1.000000 0.000000
      length 14.644143
      axis 0.0 0.0 0.0 xyz
      dof rx ry rz
   end
   begin
      id 6
      name RightFoot
      direction 0.000000 -0.258819 0.965926
      length 5.806150
      axis 15.0 0.0 0.0 xyz
      dof rx ry rz
   end
   begin
      id 7
      name RightToeBase
      direction 0.000000 0.000000 1.000000
      length 2.952750
      axis 0.0 0.0 0.0 xyz
      dof rx ry rz
   end
   begin
      id 8
      name LeftUpLeg
      direction 0.000000 -1.000000 0.000000
      length 16.405774
      axis 0.0 0.0 0.0 xyz
      dof rx ry rz
   end
   begin
      id 9
      name LeftLeg
      direction 0.000000 -1.000000 0.000000
      length 14.644143
      axis 0.0 0.0 0.0 xyz
      dof rx ry rz
   end
   begin
      id 10
      name LeftFoot
      direction 0.000000 -0.258819 0.965926
      length 5.806150
      axis 15.0 0.0 0.0 xyz
      dof rx ry rz
   end
   begin
      id 11
      name LeftToeBase
      direction 0.000000 0.000000 1.000000
      length 2.952750
      axis 0.0 0.0 0.0 xyz
      dof rx ry rz
   end
   begin
      id 12
      name Spine
      direction 0.000000 1.000000 0.000000
      length 0.000000
      axis 0.0 0.0 0.0 xyz
      dof rx ry rz
   end
   begin
      id 13
      name Spine_dum1
      direction 0.000000 1.000000 0.000000
      length 10.013923
      axis 0.0 0.0 0.0 xyz
   end
   begin
      id 14
      name Spine_dum2
      direction 0.000000 1.000000 0.000000
      length 10.013923
      axis 0.0 0.0 0.0 xyz
   end
   begin
      id 15
      name Spine_dum3
      direction 0.000000 1.000000 0.000000
      length 15.777476
      axis 0.0 0.0 0.0 xyz
   end
   begin
      id 16
      name RightShoulder
      direction -1.000000 0.000000 0.000000
      length 7.190220
      axis 0.0 0.0 90.0 xyz
      dof rx ry rz
   end
   begin
      id 17
      name RightArm
      direction -1.000000 0.000000 0.000000
      length 10.177469
      axis 0.0 0.0 90.0 xyz
      dof rx ry rz
   end
   begin
      id 18
      name RightForeArm
      direction -1.000000 0.000000 0.000000
      length 8.392114
      axis 0.0 0.0 90.0 xyz
      dof ry rz rx
   end
   begin
      id 19
      name RightHand
      direction -1.000000 0.000000 0.000000
      length 0.000000
      axis 0.0 0.0 90.0 xyz
      dof rx ry rz
   end
   begin
      id 20
      name RightHand_dum1
      direction -1.000000 0.000000 0.000000
      length 3.937000
      axis 0.0 0.0 90.0 xyz
   end
   begin
      id 21
      name RightHand_dum2
      direction 0.000000 0.000000 0.000000
      length 0.000000
      axis 0.0 0.0 90.0 xyz
   end
   begin
      id 22
      name RightHandThumb1
      direction 0.000000 0.000000 1.000000
      length 3.937000
      axis 0.0 0.0 90.0 xyz
      dof rx rz ry
   end
   begin
      id 23
      name LeftShoulder
      direction 1.000000 0.000000 0.000000
      length 7.190220
      axis 0.0 0.0 -90.0 xyz
      dof rx ry rz
   end
   begin
      id 24
      name LeftArm
      direction 1.000000 0.000000 0.000000
      length 10.177469
      axis 0.0 0.0 -90.0 xyz
      dof rx ry rz
   end
   begin
      id 25
      name LeftForeArm
      direction 1.000000 0.000000 0.000000
      length 8.392114
      axis 0.0 0.0 -90.0 xyz
      dof ry rz rx
   end
   begin
      id 26
      name LeftHand
      direction 1.000000 0.000000 0.000000
      length 0.000000
      axis 0.0 0.0 -90.0 xyz
      dof rx ry rz
   end
   begin
      id 27
      name LeftHand_dum1
      direction 1.000000 0.000000 0.000000
      length 3.937000
      axis 0.0 0.0 -90.0 xyz
   end
   begin
      id 28
      name LeftHand_dum2
      direction 0.000000 0.000000 0.000000
      length 0.000000
      axis 0.0 0.0 -90.0 xyz
   end
   begin
      id 29
      name LeftHandThumb1
      direction 0.000000 0.000000 1.000000
      length 3.937000
      axis 0.0 0.0 -90.0 xyz
      dof rx rz ry
   end
   begin
      id 30
      name Head
      direction 0.000000 1.000000 0.000000
      length 4.527550
      axis 0.0 0.0 0.0 xyz
      dof rx ry rz
   end
:hierarchy
   begin
      root RightUpLeg_dum LeftUpLeg_dum Spine_dum
      RightUpLeg_dum RightUpLeg
      LeftUpLeg_dum LeftUpLeg
      Spine_dum Spine
      RightUpLeg RightLeg
      RightLeg RightFoot
      RightFoot RightToeBase
      LeftUpLeg LeftLeg
      LeftLeg LeftFoot
      LeftFoot LeftToeBase
      Spine Spine_dum1 Spine_dum2 Spine_dum3
      Spine_dum1 RightShoulder
      Spine_dum2 LeftShoulder
      Spine_dum3 Head
      RightShoulder RightArm
      RightArm RightForeArm
      RightForeArm RightHand
      RightHand RightHand_dum1 RightHand_dum2
      RightHand_dum2 RightHandThumb1
      LeftShoulder LeftArm
      LeftArm LeftForeArm
      LeftForeArm LeftHand
      LeftHand LeftHand_dum1 LeftHand_dum2
      LeftHand_dum2 LeftHandThumb1
   end

# File created by Blade
# Date/Time:  Thu Jan 22 19:08:58 2015
# Frame Rate: 120.000 fps
#------------------------------------------------------
:FULLY-SPECIFIED
:DEGREES
916
root -2.342147 32.176544 -1.963591 108.203652 -81.852057 -94.912265
RightUpLeg -29.788230 34.570893 -1.717444
RightLeg 9.205566 -0.000000 -0.000000
RightFoot 5.863280 27.712554 27.255135
RightToeBase -7.768250 -0.000000 0.000000
LeftUpLeg 3.476396 28.191372 1.394328
LeftLeg 9.814377 -0.000000 -0.000000
LeftFoot -29.122633 23.438862 -14.283151
LeftToeBase 7.582381 -0.000000 -0.000000
Spine -6.067970 -43.054162 4.531535
RightShoulder -25.039570 -27.899394 -18.819789
RightArm -1.909043 27.617793 60.142035
RightForeArm 10.641298 -0.000000 6.832372
RightHand 6.234546 -0.000000 -12.481337
RightHandThumb1 -24.326973 -0.000000 -32.862282
LeftShoulder -3.838651 -14.331510 33.273611
LeftArm 50.258262 -7.402241 -43.362803
LeftForeArm 22.786067 -0.000000 4.294039
LeftHand -5.926960 -0.000000 -5.562491
LeftHandThumb1 -26.253704 0.000000 33.147579
Head -3.738441 23.017190 14.097280
917
root -2.352542 32.170403 -1.954491 109.379687 -81.844454 -96.056453
RightUpLeg -29.804863 34.536118 -1.678769
RightLeg 9.195497 -0.000000 -0.000000
RightFoot 6.074717 27.750199 25.998561
RightToeBase -7.938342 -0.000000 0.000000
LeftUpLeg 3.504941 28.231953 1.328771
LeftLeg 9.753903 -0.000000 -0.000000
LeftFoot -29.184596 23.442071 -14.659958
LeftToeBase 7.686638 -0.000000 -0.000000
Spine -6.088513 -43.066267 4.508470
RightShoulder -24.968472 -27.999007 -18.875418
RightArm -1.898006 27.609335 60.230154
RightForeArm 10.640056 -0.000000 6.906287
RightHand 6.156970 -0.000000 -12.638923
RightHandThumb1 -24.326973 -0.000000 -32.862282
LeftShoulder -3.774640 -14.226461 33.254189
LeftArm 50.158362 -7.487957 -43.209958
LeftForeArm 22.654036 -0.000000 4.319287
LeftHand -6.054653 0.000000 -5.410107
LeftHandThumb1 -26.253704 0.000000 33.147579
Head -3.522602 22.175419 14.274590
918
root -2.363270 32.165170 -1.947650 110.412191 -81.821224 -97.047888
RightUpLeg -29.790550 34.502119 -1.604777
RightLeg 9.128574 -0.000000 -0.000000
RightFoot 6.190618 27.814119 24.408435
RightToeBase -7.514469 -0.000000 0.000000
LeftUpLeg 3.522749 28.181022 1.279217
LeftLeg 9.709950 -0.000000 -0.000000
LeftFoot -29.288704 23.463184 -15.085469
LeftToeBase 7.683717 -0.000000 -0.000000
Spine -6.106490 -43.075823 4.494611
RightShoulder -24.869456 -27.976912 -18.929686
RightArm -2.027855 27.584624 60.202813
RightForeArm 10.670170 -0.000000 6.959973
RightHand 6.137839 -0.000000 -12.727482
RightHandThumb1 -24.326973 -0.000000 -32.862282
LeftShoulder -3.715424 -14.240981 33.230449
LeftArm 49.998005 -7.481802 -42.991650
LeftForeArm 22.690150 0.000000 4.332932
LeftHand -6.110587 -0.000000 -5.257910
LeftHandThumb1 -26.253704 0.000000 33.147579
Head -3.347753 21.316761 14.470018
919
root -2.375285 32.157754 -1.942339 111.684712 -81.769642 -98.293111
RightUpLeg -29.778650 34.571229 -1.549654
RightLeg 9.061637 -0.000000 -0.000000
RightFoot 6.290793 27.969087 23.196648
RightToeBase -5.753849 -0.000000 0.000000
LeftUpLeg 3.537879 28.211792 1.254314
LeftLeg 9.715728 -0.000000 -0.000000
LeftFoot -29.374588 23.477629 -15.320038
LeftToeBase 7.591562 -0.000000 -0.000000
Spine -6.101148 -43.030753 4.479840
RightShoulder -24.819311 -28.041424 -18.958337
RightArm -2.016607 27.579179 60.244609
RightForeArm 10.762649 -0.000000 6.963613
RightHand 6.161454 0.000000 -12.799515
RightHandThumb1 -24.326973 -0.000000 -32.862282
LeftShoulder -3.669413 -14.226417 33.208884
LeftArm 49.879562 -7.550401 -42.815943
LeftForeArm 22.732519 0.000000 4.297055
LeftHand -5.997885 -0.000000 -5.256911
LeftHandThumb1 -26.253704 0.000000 33.147579
Head -3.187094 20.491849 14.633393
920
root -2.384248 32.150693 -1.937182 112.894091 -81.716941 -99.443846
RightUpLeg -29.805491 34.620815 -1.513250
RightLeg 9.007126 -0.000000 -0.000000
RightFoot 6.288296 28.270509 21.951666
RightToeBase -4.583630 -0.000000 0.000000
LeftUpLeg 3.490945 28.231422 1.204876
LeftLeg 9.752537 -0.000000 -0.000000
LeftFoot -29.505247 23.478614 -15.579388
LeftToeBase 7.623378 -0.000000 -0.000000
Spine -6.134662 -42.999706 4.489506
RightShoulder -24.776837 -28.105949 -18.977364
RightArm -2.010545 27.603575 60.280538
RightForeArm 10.833191 -0.000000 7.025023
RightHand 6.103946 -0.000000 -12.819733
RightHandThumb1 -24.326973 -0.000000 -32.862282
LeftShoulder -3.625461 -14.210951 33.213038
LeftArm 49.742153 -7.714323 -42.742319
LeftForeArm 22.782322 -0.000000 4.271808
LeftHand -5.849313 -0.000000 -5.222963
LeftHandThumb1 -26.253704 0.000000 33.147579
Head -3.042321 19.615130 14.801171
921
root -2.394888 32.144083 -1.932558 114.364596 -81.638545 -100.886222
RightUpLeg -29.810656 34.740737 -1.478276
RightLeg 8.948441 -0.000000 -0.000000
RightFoot 6.252407 28.458403 20.761257
RightToeBase -4.023498 -0.000000 0.000000
LeftUpLeg 3.486071 28.319447 1.191842
LeftLeg 9.809498 -0.000000 -0.000000
LeftFoot -29.582136 23.475579 -15.753324
LeftToeBase 7.534685 -0.000000 -0.000000
Spine -6.102871 -42.936913 4.448487
RightShoulder -24.719745 -28.108496 -18.998430
RightArm -2.005168 27.554968 60.290580
RightForeArm 10.985081 -0.000000 7.004892
RightHand 6.190825 -0.000000 -12.754993
RightHandThumb1 -24.326973 -0.000000 -32.862282
LeftShoulder -3.653630 -14.091426 33.265929
LeftArm 49.680435 -7.941513 -42.739059
LeftForeArm 22.737374 -0.000000 4.387706
LeftHand -5.979585 -0.000000 -5.406707
LeftHandThumb1 -26.253704 0.000000 33.147579
Head -2.918901 18.696747 14.957642
922
root -2.404848 32.138862 -1.927062 115.849734 -81.553304 -102.342132
RightUpLeg -29.805689 34.830239 -1.438549
RightLeg 8.866080 -0.000000 -0.000000
RightFoot 6.315028 28.735286 20.108276
RightToeBase -2.793458 -0.000000 0.000000
LeftUpLeg 3.481924 28.302718 1.153391
LeftLeg 9.835933 -0.000000 -0.000000
LeftFoot -29.671173 23.579606 -15.944567
LeftToeBase 7.475977 -0.000000 -0.000000
Spine -6.054666 -42.854122 4.389015
RightShoulder -24.647118 -28.070814 -19.003177
RightArm -2.067742 27.625170 60.277403
RightForeArm 10.964609 -0.000000 7.040868
RightHand 6.102188 -0.000000 -12.928209
RightHandThumb1 -24.326973 -0.000000 -32.862282
LeftShoulder -3.609054 -14.111455 33.279662
LeftArm 49.502920 -7.972061 -42.468067
LeftForeArm 22.677063 -0.000000 4.349101
LeftHand -6.004893 -0.000000 -5.406764
LeftHandThumb1 -26.253704 0.000000 33.147579
Head -2.803306 17.816088 15.191714
923
root -2.414943 32.134576 -1.923619 117.355605 -81.418304 -103.809177
RightUpLeg -29.805528 34.902127 -1.361116
RightLeg 8.771998 -0.000000 -0.000000
RightFoot 6.564939 28.955289 19.900193
RightToeBase -1.376450 -0.000000 0.000000
LeftUpLeg 3.433676 28.417131 1.162590
LeftLeg 9.945816 -0.000000 -0.000000
LeftFoot -29.789050 23.591360 -16.105079
LeftToeBase 7.475287 -0.000000 -0.000000
Spine -6.025737 -42.728881 4.399113
RightShoulder -24.668268 -28.103011 -18.997880
RightArm -1.989288 27.637417 60.350055
RightForeArm 10.981953 -0.000000 7.036865
RightHand 6.220371 -0.000000 -12.949201
RightHandThumb1 -24.326973 -0.000000 -32.862282
LeftShoulder -3.606477 -14.056566 33.270282
LeftArm 49.413564 -8.123886 -42.312560
LeftForeArm 22.617315 0.000000 4.347120
LeftHand -5.951531 -0.000000 -5.385180
LeftHandThumb1 -26.253704 0.000000 33.147579
Head -2.698972 16.916471 15.385451
924
root -2.424902 32.131366 -1.917627 118.892403 -81.299040 -105.306456
RightUpLeg -29.776072 34.909753 -1.271815
RightLeg 8.665156 -0.000000 -0.000000
RightFoot 6.832427 29.087569 19.917111
RightToeBase -0.265860 -0.000000 0.000000
LeftUpLeg 3.386121 28.486472 1.133101
LeftLeg 10.037799 -0.000000 -0.000000
LeftFoot -29.888876 23.670991 -16.274950
LeftToeBase 7.419088 -0.000000 -0.000000
Spine -5.996514 -42.636673 4.357385
RightShoulder -24.612442 -28.093962 -18.983940
RightArm -1.988460 27.713907 60.370780
RightForeArm 10.946795 -0.000000 7.100099
RightHand 6.226822 -0.000000 -12.945759
RightHandThumb1 -24.326973 -0.000000 -32.862282
LeftShoulder -3.585565 -14.023106 33.259984
LeftArm 49.284461 -8.242919 -42.077385
LeftForeArm 22.617009 -0.000000 4.306402
LeftHand -6.024321 0.000000 -5.376927
LeftHandThumb1 -26.253704 0.000000 33.147579
Head -2.545192 15.998598 15.639772
